# This file uses centimeters as units for non-parametric coordinates.

mtllib button.mtl
g default
v 0.338703 0.043228 -0.071994
v 0.316333 0.043228 -0.140841
v 0.280138 0.043228 -0.203532
v 0.231700 0.043228 -0.257329
v 0.173135 0.043228 -0.299879
v 0.107003 0.043228 -0.329322
v 0.036195 0.043228 -0.344373
v -0.036195 0.043228 -0.344373
v -0.107003 0.043228 -0.329322
v -0.173135 0.043228 -0.299879
v -0.231700 0.043228 -0.257329
v -0.280138 0.043228 -0.203532
v -0.316333 0.043228 -0.140841
v -0.338703 0.043228 -0.071994
v -0.346270 0.043228 -0.000000
v -0.338703 0.043228 0.071994
v -0.316333 0.043228 0.140841
v -0.280138 0.043228 0.203532
v -0.231700 0.043228 0.257329
v -0.173135 0.043228 0.299878
v -0.107003 0.043228 0.329322
v -0.036195 0.043228 0.344373
v 0.036195 0.043228 0.344373
v 0.107003 0.043228 0.329322
v 0.173135 0.043228 0.299878
v 0.231700 0.043228 0.257329
v 0.280138 0.043228 0.203532
v 0.316333 0.043228 0.140841
v 0.338703 0.043228 0.071994
v 0.346270 0.043228 0.000000
v 0.338703 0.150976 -0.071994
v 0.316333 0.150976 -0.140841
v 0.280138 0.150976 -0.203532
v 0.231700 0.150976 -0.257329
v 0.173135 0.150976 -0.299879
v 0.107003 0.150976 -0.329322
v 0.036195 0.150976 -0.344373
v -0.036195 0.150976 -0.344373
v -0.107003 0.150976 -0.329322
v -0.173135 0.150976 -0.299879
v -0.231700 0.150976 -0.257329
v -0.280138 0.150976 -0.203532
v -0.316333 0.150976 -0.140841
v -0.338703 0.150976 -0.071994
v -0.346270 0.150976 -0.000000
v -0.338703 0.150976 0.071994
v -0.316333 0.150976 0.140841
v -0.280138 0.150976 0.203532
v -0.231700 0.150976 0.257329
v -0.173135 0.150976 0.299878
v -0.107003 0.150976 0.329322
v -0.036195 0.150976 0.344373
v 0.036195 0.150976 0.344373
v 0.107003 0.150976 0.329322
v 0.173135 0.150976 0.299878
v 0.231700 0.150976 0.257329
v 0.280138 0.150976 0.203532
v 0.316333 0.150976 0.140841
v 0.338703 0.150976 0.071994
v 0.346270 0.150976 0.000000
v 0.000000 0.043228 0.000000
v 0.000000 0.150976 0.000000
vt 0.974166 0.477849
vt 0.965057 0.449817
vt 0.950320 0.424292
vt 0.930598 0.402388
vt 0.906753 0.385063
vt 0.879826 0.373075
vt 0.850996 0.366947
vt 0.821522 0.366947
vt 0.792691 0.373075
vt 0.765765 0.385063
vt 0.741920 0.402388
vt 0.722198 0.424292
vt 0.707460 0.449817
vt 0.698352 0.477849
vt 0.695271 0.507162
vt 0.698352 0.536475
vt 0.707460 0.564507
vt 0.722198 0.590033
vt 0.741920 0.611936
vt 0.765765 0.629261
vt 0.792691 0.641249
vt 0.821522 0.647377
vt 0.850996 0.647377
vt 0.879826 0.641249
vt 0.906753 0.629261
vt 0.930598 0.611936
vt 0.950320 0.590033
vt 0.965057 0.564507
vt 0.974165 0.536475
vt 0.977246 0.507162
vt 0.046429 0.312500
vt 0.054762 0.312500
vt 0.063095 0.312500
vt 0.071429 0.312500
vt 0.079762 0.312500
vt 0.088095 0.312500
vt 0.096429 0.312500
vt 0.104762 0.312500
vt 0.113095 0.312500
vt 0.121428 0.312500
vt 0.129762 0.312500
vt 0.138095 0.312500
vt 0.146428 0.312500
vt 0.154762 0.312500
vt 0.163095 0.312500
vt 0.171428 0.312500
vt 0.179762 0.312500
vt 0.188095 0.312500
vt 0.196428 0.312500
vt 0.204762 0.312500
vt 0.213095 0.312500
vt 0.221428 0.312500
vt 0.229762 0.312500
vt 0.238095 0.312500
vt 0.246428 0.312500
vt 0.254762 0.312500
vt 0.263095 0.312500
vt 0.271428 0.312500
vt 0.279762 0.312500
vt 0.288095 0.312500
vt 0.296428 0.312500
vt 0.046429 0.688440
vt 0.054762 0.688440
vt 0.063095 0.688440
vt 0.071429 0.688440
vt 0.079762 0.688440
vt 0.088095 0.688440
vt 0.096429 0.688440
vt 0.104762 0.688440
vt 0.113095 0.688440
vt 0.121428 0.688440
vt 0.129762 0.688440
vt 0.138095 0.688440
vt 0.146428 0.688440
vt 0.154762 0.688440
vt 0.163095 0.688440
vt 0.171428 0.688440
vt 0.179762 0.688440
vt 0.188095 0.688440
vt 0.196428 0.688440
vt 0.204762 0.688440
vt 0.213095 0.688440
vt 0.221428 0.688440
vt 0.229762 0.688440
vt 0.238095 0.688440
vt 0.246428 0.688440
vt 0.254762 0.688440
vt 0.263095 0.688440
vt 0.271428 0.688440
vt 0.279762 0.688440
vt 0.288095 0.688440
vt 0.296428 0.688440
vt 0.298689 0.809431
vt 0.289581 0.781399
vt 0.274844 0.755873
vt 0.255122 0.733970
vt 0.231276 0.716645
vt 0.204350 0.704657
vt 0.175520 0.698529
vt 0.146045 0.698529
vt 0.117215 0.704657
vt 0.090289 0.716645
vt 0.066444 0.733970
vt 0.046721 0.755873
vt 0.031984 0.781399
vt 0.022876 0.809431
vt 0.019795 0.838744
vt 0.022876 0.868057
vt 0.031984 0.896089
vt 0.046721 0.921614
vt 0.066444 0.943518
vt 0.090289 0.960843
vt 0.117215 0.972831
vt 0.146045 0.978959
vt 0.175520 0.978959
vt 0.204350 0.972831
vt 0.231276 0.960843
vt 0.255122 0.943518
vt 0.274844 0.921614
vt 0.289581 0.896089
vt 0.298689 0.868057
vt 0.301770 0.838744
vt 0.836259 0.501523
vt 0.160783 0.833104
vn 0.978148 0.000000 -0.207909
vn 0.913545 0.000000 -0.406737
vn 0.913545 0.000000 -0.406737
vn 0.978148 0.000000 -0.207909
vn 0.809017 0.000000 -0.587785
vn 0.809017 0.000000 -0.587785
vn 0.669131 0.000000 -0.743145
vn 0.669131 0.000000 -0.743145
vn 0.500000 0.000000 -0.866025
vn 0.500000 0.000000 -0.866025
vn 0.309017 0.000000 -0.951057
vn 0.309017 0.000000 -0.951057
vn 0.104528 0.000000 -0.994522
vn 0.104528 0.000000 -0.994522
vn -0.104528 0.000000 -0.994522
vn -0.104528 0.000000 -0.994522
vn -0.309017 0.000000 -0.951057
vn -0.309017 0.000000 -0.951057
vn -0.500000 0.000000 -0.866025
vn -0.500000 0.000000 -0.866025
vn -0.669131 0.000000 -0.743145
vn -0.669131 0.000000 -0.743145
vn -0.809017 0.000000 -0.587785
vn -0.809017 0.000000 -0.587785
vn -0.913546 0.000000 -0.406736
vn -0.913546 0.000000 -0.406736
vn -0.978148 0.000000 -0.207912
vn -0.978148 0.000000 -0.207912
vn -1.000000 0.000000 0.000000
vn -1.000000 0.000000 0.000000
vn -0.978148 0.000000 0.207912
vn -0.978148 0.000000 0.207912
vn -0.913545 0.000000 0.406737
vn -0.913545 0.000000 0.406737
vn -0.809017 0.000000 0.587785
vn -0.809017 0.000000 0.587785
vn -0.669131 0.000000 0.743145
vn -0.669131 0.000000 0.743145
vn -0.500000 0.000000 0.866026
vn -0.500000 0.000000 0.866026
vn -0.309017 0.000000 0.951057
vn -0.309017 0.000000 0.951057
vn -0.104529 0.000000 0.994522
vn -0.104529 0.000000 0.994522
vn 0.104529 0.000000 0.994522
vn 0.104529 0.000000 0.994522
vn 0.309017 0.000000 0.951056
vn 0.309017 0.000000 0.951056
vn 0.500000 0.000000 0.866025
vn 0.500000 0.000000 0.866025
vn 0.669131 0.000000 0.743145
vn 0.669131 0.000000 0.743145
vn 0.809017 0.000000 0.587785
vn 0.809017 0.000000 0.587785
vn 0.913545 0.000000 0.406737
vn 0.913545 0.000000 0.406737
vn 0.978148 0.000000 0.207911
vn 0.978148 0.000000 0.207911
vn 1.000000 0.000000 0.000002
vn 1.000000 0.000000 0.000002
vn 0.000000 -1.000000 0.000000
vn 0.000000 -1.000000 0.000000
vn 0.000000 -1.000000 -0.000000
vn 0.000000 -1.000000 0.000000
vn 0.000000 -1.000000 0.000000
vn 0.000000 -1.000000 0.000000
vn 0.000000 -1.000000 0.000000
vn 0.000000 -1.000000 0.000000
vn 0.000000 -1.000000 0.000000
vn 0.000000 -1.000000 0.000000
vn 0.000000 -1.000000 0.000000
vn 0.000000 -1.000000 -0.000000
vn 0.000000 -1.000000 -0.000000
vn 0.000000 -1.000000 0.000000
vn 0.000000 -1.000000 0.000000
vn 0.000000 -1.000000 0.000000
vn 0.000000 -1.000000 0.000000
vn 0.000000 -1.000000 -0.000000
vn 0.000000 -1.000000 -0.000000
vn 0.000000 -1.000000 0.000000
vn 0.000000 -1.000000 -0.000000
vn 0.000000 -1.000000 0.000000
vn 0.000000 -1.000000 -0.000000
vn 0.000000 -1.000000 -0.000000
vn 0.000000 -1.000000 0.000000
vn 0.000000 -1.000000 0.000000
vn 0.000000 -1.000000 0.000000
vn 0.000000 -1.000000 0.000000
vn 0.000000 -1.000000 -0.000000
vn 0.000000 -1.000000 -0.000000
vn 0.000000 -1.000000 0.000000
vn 0.000000 1.000000 -0.000000
vn 0.000000 1.000000 -0.000000
vn 0.000000 1.000000 0.000000
vn 0.000000 1.000000 0.000000
vn 0.000000 1.000000 0.000000
vn 0.000000 1.000000 0.000000
vn 0.000000 1.000000 0.000000
vn 0.000000 1.000000 0.000000
vn 0.000000 1.000000 0.000000
vn 0.000000 1.000000 0.000000
vn 0.000000 1.000000 0.000000
vn 0.000000 1.000000 -0.000000
vn 0.000000 1.000000 -0.000000
vn 0.000000 1.000000 0.000000
vn 0.000000 1.000000 -0.000000
vn 0.000000 1.000000 -0.000000
vn 0.000000 1.000000 0.000000
vn 0.000000 1.000000 -0.000000
vn 0.000000 1.000000 -0.000000
vn 0.000000 1.000000 0.000000
vn 0.000000 1.000000 0.000000
vn 0.000000 1.000000 0.000000
vn 0.000000 1.000000 -0.000000
vn 0.000000 1.000000 -0.000000
vn 0.000000 1.000000 -0.000000
vn 0.000000 1.000000 0.000000
vn 0.000000 1.000000 0.000000
vn 0.000000 1.000000 0.000000
vn 0.000000 1.000000 0.000000
vn 0.000000 1.000000 0.000000
vn 0.000000 1.000000 0.000000
s 1
g pCylinder4
usemtl initialShadingGroup
f 1/31/1 2/32/2 32/63/3 31/62/4
f 2/32/2 3/33/5 33/64/6 32/63/3
f 3/33/5 4/34/7 34/65/8 33/64/6
f 4/34/7 5/35/9 35/66/10 34/65/8
f 5/35/9 6/36/11 36/67/12 35/66/10
f 6/36/11 7/37/13 37/68/14 36/67/12
f 7/37/13 8/38/15 38/69/16 37/68/14
f 8/38/15 9/39/17 39/70/18 38/69/16
f 9/39/17 10/40/19 40/71/20 39/70/18
f 10/40/19 11/41/21 41/72/22 40/71/20
f 11/41/21 12/42/23 42/73/24 41/72/22
f 12/42/23 13/43/25 43/74/26 42/73/24
f 13/43/25 14/44/27 44/75/28 43/74/26
f 14/44/27 15/45/29 45/76/30 44/75/28
f 15/45/29 16/46/31 46/77/32 45/76/30
f 16/46/31 17/47/33 47/78/34 46/77/32
f 17/47/33 18/48/35 48/79/36 47/78/34
f 18/48/35 19/49/37 49/80/38 48/79/36
f 19/49/37 20/50/39 50/81/40 49/80/38
f 20/50/39 21/51/41 51/82/42 50/81/40
f 21/51/41 22/52/43 52/83/44 51/82/42
f 22/52/43 23/53/45 53/84/46 52/83/44
f 23/53/45 24/54/47 54/85/48 53/84/46
f 24/54/47 25/55/49 55/86/50 54/85/48
f 25/55/49 26/56/51 56/87/52 55/86/50
f 26/56/51 27/57/53 57/88/54 56/87/52
f 27/57/53 28/58/55 58/89/56 57/88/54
f 28/58/55 29/59/57 59/90/58 58/89/56
f 29/59/57 30/60/59 60/91/60 59/90/58
f 30/60/59 1/61/1 31/92/4 60/91/60
s 2
f 2/2/61 1/1/62 61/123/63
f 3/3/64 2/2/61 61/123/63
f 4/4/65 3/3/64 61/123/63
f 5/5/66 4/4/65 61/123/63
f 6/6/67 5/5/66 61/123/63
f 7/7/68 6/6/67 61/123/63
f 8/8/69 7/7/68 61/123/63
f 9/9/70 8/8/69 61/123/63
f 10/10/71 9/9/70 61/123/63
f 11/11/72 10/10/71 61/123/63
f 12/12/73 11/11/72 61/123/63
f 13/13/74 12/12/73 61/123/63
f 14/14/75 13/13/74 61/123/63
f 15/15/76 14/14/75 61/123/63
f 16/16/77 15/15/76 61/123/63
f 17/17/78 16/16/77 61/123/63
f 18/18/79 17/17/78 61/123/63
f 19/19/80 18/18/79 61/123/63
f 20/20/81 19/19/80 61/123/63
f 21/21/82 20/20/81 61/123/63
f 22/22/83 21/21/82 61/123/63
f 23/23/84 22/22/83 61/123/63
f 24/24/85 23/23/84 61/123/63
f 25/25/86 24/24/85 61/123/63
f 26/26/87 25/25/86 61/123/63
f 27/27/88 26/26/87 61/123/63
f 28/28/89 27/27/88 61/123/63
f 29/29/90 28/28/89 61/123/63
f 30/30/91 29/29/90 61/123/63
f 1/1/62 30/30/91 61/123/63
s 3
f 31/121/92 32/120/93 62/124/94
f 32/120/93 33/119/95 62/124/94
f 33/119/95 34/118/96 62/124/94
f 34/118/96 35/117/97 62/124/94
f 35/117/97 36/116/98 62/124/94
f 36/116/98 37/115/99 62/124/94
f 37/115/99 38/114/100 62/124/94
f 38/114/100 39/113/101 62/124/94
f 39/113/101 40/112/102 62/124/94
f 40/112/102 41/111/103 62/124/94
f 41/111/103 42/110/104 62/124/94
f 42/110/104 43/109/105 62/124/94
f 43/109/105 44/108/106 62/124/94
f 44/108/106 45/107/107 62/124/94
f 45/107/107 46/106/108 62/124/94
f 46/106/108 47/105/109 62/124/94
f 47/105/109 48/104/110 62/124/94
f 48/104/110 49/103/111 62/124/94
f 49/103/111 50/102/112 62/124/94
f 50/102/112 51/101/113 62/124/94
f 51/101/113 52/100/114 62/124/94
f 52/100/114 53/99/115 62/124/94
f 53/99/115 54/98/116 62/124/94
f 54/98/116 55/97/117 62/124/94
f 55/97/117 56/96/118 62/124/94
f 56/96/118 57/95/119 62/124/94
f 57/95/119 58/94/120 62/124/94
f 58/94/120 59/93/121 62/124/94
f 59/93/121 60/122/122 62/124/94
f 60/122/122 31/121/92 62/124/94
