# This file uses centimeters as units for non-parametric coordinates.

mtllib doorknob.mtl
g default
v 0.034396 -0.091558 -0.249535
v 0.034396 -0.080628 -0.263321
v 0.034396 -0.064833 -0.270972
v 0.034396 -0.047302 -0.270972
v 0.034396 -0.031507 -0.263321
v 0.034396 -0.020576 -0.249535
v 0.034396 -0.016675 -0.232345
v 0.034396 -0.020576 -0.215155
v 0.034396 -0.031507 -0.201369
v 0.034396 -0.047302 -0.193719
v 0.034396 -0.064833 -0.193719
v 0.034396 -0.080628 -0.201369
v 0.034396 -0.091558 -0.215155
v 0.034396 -0.095459 -0.232345
v 0.047736 -0.067144 -0.237710
v 0.047736 -0.063733 -0.242013
v 0.047736 -0.058803 -0.244400
v 0.047736 -0.053331 -0.244400
v 0.047736 -0.048402 -0.242013
v 0.047736 -0.044990 -0.237710
v 0.047736 -0.043773 -0.232345
v 0.047736 -0.044990 -0.226980
v 0.047736 -0.048402 -0.222677
v 0.047736 -0.053331 -0.220290
v 0.047736 -0.058803 -0.220290
v 0.047736 -0.063733 -0.222677
v 0.047736 -0.067144 -0.226980
v 0.047736 -0.068362 -0.232345
v 0.041616 -0.056067 -0.232345
v 0.059618 -0.068871 -0.238547
v 0.059618 -0.064928 -0.243520
v 0.059618 -0.059229 -0.246280
v 0.059618 -0.052905 -0.246280
v 0.059618 -0.047207 -0.243520
v 0.059618 -0.043264 -0.238547
v 0.059618 -0.041856 -0.232345
v 0.059618 -0.043264 -0.226144
v 0.059618 -0.047207 -0.221170
v 0.059618 -0.052905 -0.218410
v 0.059618 -0.059229 -0.218410
v 0.059618 -0.064928 -0.221170
v 0.059618 -0.068871 -0.226144
v 0.059618 -0.070278 -0.232345
v 0.077396 -0.077670 -0.242809
v 0.077396 -0.071017 -0.251200
v 0.077396 -0.061403 -0.255856
v 0.077396 -0.050732 -0.255856
v 0.077396 -0.041118 -0.251200
v 0.077396 -0.034464 -0.242809
v 0.077396 -0.032090 -0.232345
v 0.077396 -0.034464 -0.221881
v 0.077396 -0.041118 -0.213490
v 0.077396 -0.050732 -0.208834
v 0.077396 -0.061403 -0.208834
v 0.077396 -0.071017 -0.213490
v 0.077396 -0.077670 -0.221882
v 0.077396 -0.080045 -0.232345
v 0.080673 -0.079249 -0.243573
v 0.080673 -0.072110 -0.252578
v 0.080673 -0.061793 -0.257575
v 0.080673 -0.050342 -0.257575
v 0.080673 -0.040025 -0.252578
v 0.080673 -0.032885 -0.243573
v 0.080673 -0.030337 -0.232345
v 0.080673 -0.032885 -0.221117
v 0.080673 -0.040025 -0.212112
v 0.080673 -0.050342 -0.207115
v 0.080673 -0.061793 -0.207115
v 0.080673 -0.072110 -0.212112
v 0.080673 -0.079249 -0.221117
v 0.080673 -0.081797 -0.232345
v 0.083149 -0.081042 -0.244442
v 0.083149 -0.073350 -0.254143
v 0.083149 -0.062236 -0.259526
v 0.083149 -0.049899 -0.259526
v 0.083149 -0.038784 -0.254143
v 0.083149 -0.031092 -0.244442
v 0.083149 -0.028347 -0.232345
v 0.083149 -0.031092 -0.220248
v 0.083149 -0.038784 -0.210547
v 0.083149 -0.049899 -0.205164
v 0.083149 -0.062235 -0.205164
v 0.083149 -0.073350 -0.210547
v 0.083149 -0.081042 -0.220248
v 0.083149 -0.083787 -0.232345
v 0.085863 -0.083321 -0.245546
v 0.085863 -0.074928 -0.256132
v 0.085863 -0.062798 -0.262007
v 0.085863 -0.049336 -0.262007
v 0.085863 -0.037207 -0.256132
v 0.085863 -0.028813 -0.245546
v 0.085863 -0.025817 -0.232345
v 0.085863 -0.028813 -0.219144
v 0.085863 -0.037207 -0.208558
v 0.085863 -0.049336 -0.202683
v 0.085863 -0.062798 -0.202683
v 0.085863 -0.074928 -0.208558
v 0.085863 -0.083321 -0.219144
v 0.085863 -0.086317 -0.232345
v 0.088430 -0.083321 -0.245546
v 0.088430 -0.074928 -0.256132
v 0.088430 -0.062798 -0.262007
v 0.088430 -0.049336 -0.262007
v 0.088430 -0.037207 -0.256132
v 0.088430 -0.028813 -0.245546
v 0.088430 -0.025817 -0.232345
v 0.088430 -0.028813 -0.219144
v 0.088430 -0.037207 -0.208558
v 0.088430 -0.049336 -0.202683
v 0.088430 -0.062798 -0.202683
v 0.088430 -0.074928 -0.208558
v 0.088430 -0.083321 -0.219144
v 0.088430 -0.086317 -0.232345
v 0.091003 -0.082625 -0.245208
v 0.091003 -0.074446 -0.255524
v 0.091003 -0.062626 -0.261249
v 0.091003 -0.049508 -0.261249
v 0.091003 -0.037689 -0.255524
v 0.091003 -0.029510 -0.245208
v 0.091003 -0.026590 -0.232345
v 0.091003 -0.029510 -0.219482
v 0.091003 -0.037689 -0.209166
v 0.091003 -0.049508 -0.203441
v 0.091003 -0.062626 -0.203441
v 0.091003 -0.074446 -0.209166
v 0.091003 -0.082625 -0.219482
v 0.091003 -0.085544 -0.232345
v 0.094380 -0.074105 -0.241082
v 0.094380 -0.068550 -0.248088
v 0.094380 -0.060522 -0.251976
v 0.094380 -0.051612 -0.251976
v 0.094380 -0.043585 -0.248088
v 0.094380 -0.038030 -0.241082
v 0.094380 -0.036047 -0.232345
v 0.094380 -0.038030 -0.223608
v 0.094380 -0.043585 -0.216602
v 0.094380 -0.051612 -0.212714
v 0.094380 -0.060522 -0.212714
v 0.094380 -0.068550 -0.216602
v 0.094380 -0.074105 -0.223608
v 0.094380 -0.076087 -0.232345
v 0.091936 -0.068684 -0.238456
v 0.091936 -0.064798 -0.243357
v 0.091936 -0.056067 -0.232345
v 0.091936 -0.059183 -0.246077
v 0.091936 -0.052951 -0.246077
v 0.091936 -0.047336 -0.243357
v 0.091936 -0.043450 -0.238456
v 0.091936 -0.042064 -0.232345
v 0.091936 -0.043450 -0.226234
v 0.091936 -0.047336 -0.221333
v 0.091936 -0.052951 -0.218613
v 0.091936 -0.059183 -0.218613
v 0.091936 -0.064798 -0.221333
v 0.091936 -0.068684 -0.226234
v 0.091936 -0.070071 -0.232345
vt 0.640776 0.088456
vt 0.597420 0.034089
vt 0.534769 0.003918
vt 0.465231 0.003918
vt 0.402580 0.034089
vt 0.359224 0.088456
vt 0.343750 0.156250
vt 0.359224 0.224044
vt 0.402580 0.278411
vt 0.465231 0.308582
vt 0.534769 0.308582
vt 0.597420 0.278411
vt 0.640776 0.224044
vt 0.656250 0.156250
vt 0.375000 0.312500
vt 0.392857 0.312500
vt 0.410714 0.312500
vt 0.428571 0.312500
vt 0.446429 0.312500
vt 0.464286 0.312500
vt 0.482143 0.312500
vt 0.500000 0.312500
vt 0.517857 0.312500
vt 0.535714 0.312500
vt 0.553571 0.312500
vt 0.571428 0.312500
vt 0.589286 0.312500
vt 0.607143 0.312500
vt 0.625000 0.312500
vt 0.375000 0.688440
vt 0.392857 0.688440
vt 0.410714 0.688440
vt 0.428571 0.688440
vt 0.446429 0.688440
vt 0.464286 0.688440
vt 0.482143 0.688440
vt 0.500000 0.688440
vt 0.517857 0.688440
vt 0.535714 0.688440
vt 0.553571 0.688440
vt 0.571428 0.688440
vt 0.589286 0.688440
vt 0.607143 0.688440
vt 0.625000 0.688440
vt 0.640776 0.775956
vt 0.597420 0.721589
vt 0.534769 0.691418
vt 0.465231 0.691418
vt 0.402580 0.721589
vt 0.359224 0.775956
vt 0.343750 0.843750
vt 0.359224 0.911544
vt 0.402580 0.965911
vt 0.465231 0.996082
vt 0.534769 0.996082
vt 0.597420 0.965911
vt 0.640776 0.911544
vt 0.656250 0.843750
vt 0.500000 0.150000
vt 0.500000 0.837500
vt 0.640776 0.911544
vt 0.597420 0.965911
vt 0.534769 0.996082
vt 0.465231 0.996082
vt 0.402580 0.965911
vt 0.359224 0.911544
vt 0.343750 0.843750
vt 0.359224 0.775956
vt 0.402580 0.721589
vt 0.465231 0.691418
vt 0.534769 0.691418
vt 0.597420 0.721589
vt 0.640776 0.775956
vt 0.656250 0.843750
vt 0.640776 0.911544
vt 0.597420 0.965911
vt 0.534769 0.996082
vt 0.465231 0.996082
vt 0.402580 0.965911
vt 0.359224 0.911544
vt 0.343750 0.843750
vt 0.359224 0.775956
vt 0.402580 0.721589
vt 0.465231 0.691418
vt 0.534769 0.691418
vt 0.597420 0.721589
vt 0.640776 0.775956
vt 0.656250 0.843750
vt 0.640776 0.911544
vt 0.597420 0.965911
vt 0.534769 0.996082
vt 0.465231 0.996082
vt 0.402580 0.965911
vt 0.359224 0.911544
vt 0.343750 0.843750
vt 0.359224 0.775956
vt 0.402580 0.721589
vt 0.465231 0.691418
vt 0.534769 0.691418
vt 0.597420 0.721589
vt 0.640776 0.775956
vt 0.656250 0.843750
vt 0.640776 0.911544
vt 0.597420 0.965911
vt 0.534769 0.996082
vt 0.465231 0.996082
vt 0.402580 0.965911
vt 0.359224 0.911544
vt 0.343750 0.843750
vt 0.359224 0.775956
vt 0.402580 0.721589
vt 0.465231 0.691418
vt 0.534769 0.691418
vt 0.597420 0.721589
vt 0.640776 0.775956
vt 0.656250 0.843750
vt 0.640776 0.911544
vt 0.597420 0.965911
vt 0.534769 0.996082
vt 0.465231 0.996082
vt 0.402580 0.965911
vt 0.359224 0.911544
vt 0.343750 0.843750
vt 0.359224 0.775956
vt 0.402580 0.721589
vt 0.465231 0.691418
vt 0.534769 0.691418
vt 0.597420 0.721589
vt 0.640776 0.775956
vt 0.656250 0.843750
vt 0.640776 0.911544
vt 0.597420 0.965911
vt 0.534769 0.996082
vt 0.465231 0.996082
vt 0.402580 0.965911
vt 0.359224 0.911544
vt 0.343750 0.843750
vt 0.359224 0.775956
vt 0.402580 0.721589
vt 0.465231 0.691418
vt 0.534769 0.691418
vt 0.597420 0.721589
vt 0.640776 0.775956
vt 0.656250 0.843750
vt 0.640776 0.911544
vt 0.597420 0.965911
vt 0.534769 0.996082
vt 0.465231 0.996082
vt 0.402580 0.965911
vt 0.359224 0.911544
vt 0.343750 0.843750
vt 0.359224 0.775956
vt 0.402580 0.721589
vt 0.465231 0.691418
vt 0.534769 0.691418
vt 0.597420 0.721589
vt 0.640776 0.775956
vt 0.656250 0.843750
vt 0.640776 0.911544
vt 0.597420 0.965911
vt 0.534769 0.996082
vt 0.465231 0.996082
vt 0.402580 0.965911
vt 0.359224 0.911544
vt 0.343750 0.843750
vt 0.359224 0.775956
vt 0.402580 0.721589
vt 0.465231 0.691418
vt 0.534769 0.691418
vt 0.597420 0.721589
vt 0.640776 0.775956
vt 0.656250 0.843750
vt 0.640776 0.911544
vt 0.597420 0.965911
vt 0.534769 0.996082
vt 0.465231 0.996082
vt 0.402580 0.965911
vt 0.359224 0.911544
vt 0.343750 0.843750
vt 0.359224 0.775956
vt 0.402580 0.721589
vt 0.465231 0.691418
vt 0.534769 0.691418
vt 0.597420 0.721589
vt 0.640776 0.775956
vt 0.656250 0.843750
vn 0.897354 -0.398038 -0.190583
vn 0.897779 -0.275581 -0.343581
vn 0.897779 -0.275581 -0.343581
vn 0.897354 -0.398038 -0.190583
vn 0.898120 -0.098391 -0.428601
vn 0.898120 -0.098391 -0.428601
vn 0.898120 0.098391 -0.428601
vn 0.898120 0.098391 -0.428601
vn 0.897779 0.275581 -0.343581
vn 0.897779 0.275581 -0.343581
vn 0.897354 0.398038 -0.190583
vn 0.897354 0.398038 -0.190583
vn 0.897165 0.441696 -0.000000
vn 0.897165 0.441696 -0.000000
vn 0.897354 0.398038 0.190583
vn 0.897354 0.398038 0.190583
vn 0.897779 0.275581 0.343581
vn 0.897779 0.275581 0.343581
vn 0.898120 0.098391 0.428601
vn 0.898120 0.098391 0.428601
vn 0.898120 -0.098391 0.428601
vn 0.898120 -0.098391 0.428601
vn 0.897779 -0.275581 0.343581
vn 0.897779 -0.275581 0.343581
vn 0.897354 -0.398038 0.190583
vn 0.897354 -0.398038 0.190583
vn 0.897165 -0.441695 0.000000
vn 0.897165 -0.441695 0.000000
vn -0.983725 0.112423 0.140163
vn -0.983648 0.162443 0.077778
vn -1.000000 0.000000 -0.000000
vn -0.983788 0.040126 0.174791
vn -0.983788 -0.040126 0.174791
vn -0.983725 -0.112423 0.140163
vn -0.983648 -0.162442 0.077778
vn -0.983613 -0.180291 0.000000
vn -0.983648 -0.162443 -0.077778
vn -0.983725 -0.112423 -0.140163
vn -0.983788 -0.040126 -0.174791
vn -0.983788 0.040126 -0.174791
vn -0.983725 0.112423 -0.140163
vn -0.983648 0.162442 -0.077778
vn -0.983613 0.180291 -0.000000
vn 1.000000 -0.000001 0.000000
vn 1.000000 -0.000000 -0.000000
vn 1.000000 -0.000000 0.000000
vn 1.000000 -0.000000 -0.000000
vn 1.000000 0.000000 -0.000000
vn 1.000000 0.000000 -0.000000
vn 1.000000 0.000001 -0.000000
vn 1.000000 0.000001 0.000000
vn 1.000000 0.000001 0.000000
vn 1.000000 0.000000 0.000000
vn 1.000000 0.000000 0.000000
vn 1.000000 -0.000000 0.000001
vn 1.000000 -0.000000 0.000000
vn 1.000000 -0.000001 0.000000
vn 1.000000 -0.000001 0.000000
vn -0.159401 -0.890410 -0.426334
vn -0.159780 -0.617648 -0.770053
vn -0.397761 -0.574060 -0.715710
vn -0.396946 -0.827841 -0.396376
vn -0.160086 -0.220858 -0.962078
vn -0.398419 -0.205218 -0.893951
vn -0.160086 0.220857 -0.962078
vn -0.398419 0.205218 -0.893951
vn -0.159780 0.617648 -0.770053
vn -0.397762 0.574060 -0.715710
vn -0.159401 0.890410 -0.426335
vn -0.396946 0.827840 -0.396376
vn -0.159234 0.987241 -0.000001
vn -0.396586 0.917998 -0.000001
vn -0.159402 0.890410 0.426334
vn -0.396947 0.827841 0.396375
vn -0.159780 0.617648 0.770053
vn -0.397762 0.574060 0.715710
vn -0.160086 0.220858 0.962078
vn -0.398419 0.205219 0.893951
vn -0.160086 -0.220857 0.962078
vn -0.398419 -0.205218 0.893951
vn -0.159780 -0.617648 0.770053
vn -0.397762 -0.574059 0.715710
vn -0.159401 -0.890410 0.426334
vn -0.396947 -0.827840 0.396375
vn -0.159234 -0.987241 0.000000
vn -0.396586 -0.917998 -0.000002
vn -0.482796 -0.547934 -0.683137
vn -0.481894 -0.790308 -0.378405
vn -0.483523 -0.195850 -0.853140
vn -0.483523 0.195849 -0.853140
vn -0.482796 0.547934 -0.683137
vn -0.481895 0.790308 -0.378405
vn -0.481495 0.876449 -0.000001
vn -0.481895 0.790308 0.378404
vn -0.482797 0.547934 0.683137
vn -0.483523 0.195850 0.853140
vn -0.483523 -0.195850 0.853140
vn -0.482797 -0.547933 0.683137
vn -0.481896 -0.790308 0.378404
vn -0.481496 -0.876448 -0.000002
vn -0.472034 -0.795135 -0.380716
vn -0.472929 -0.551293 -0.687324
vn -0.554240 -0.520795 -0.649300
vn -0.553304 -0.751299 -0.359728
vn -0.473651 -0.197054 -0.858385
vn -0.554994 -0.186122 -0.810765
vn -0.473650 0.197054 -0.858385
vn -0.554994 0.186122 -0.810765
vn -0.472928 0.551293 -0.687324
vn -0.554239 0.520795 -0.649301
vn -0.472033 0.795135 -0.380716
vn -0.553304 0.751300 -0.359728
vn -0.471637 0.881793 -0.000001
vn -0.552889 0.833255 -0.000002
vn -0.472035 0.795135 0.380715
vn -0.553305 0.751299 0.359726
vn -0.472930 0.551292 0.687324
vn -0.554241 0.520794 0.649300
vn -0.473650 0.197054 0.858385
vn -0.554994 0.186122 0.810765
vn -0.473650 -0.197054 0.858385
vn -0.554994 -0.186122 0.810765
vn -0.472929 -0.551291 0.687325
vn -0.554240 -0.520793 0.649301
vn -0.472034 -0.795135 0.380715
vn -0.553305 -0.751300 0.359726
vn -0.471637 -0.881793 -0.000003
vn -0.552889 -0.833255 -0.000003
vn -0.627815 -0.487011 -0.607181
vn -0.626889 -0.702711 -0.336464
vn -0.628562 -0.174019 -0.758042
vn -0.628562 0.174019 -0.758042
vn -0.627815 0.487011 -0.607181
vn -0.626889 0.702711 -0.336463
vn -0.626478 0.779439 -0.000002
vn -0.626890 0.702711 0.336461
vn -0.627816 0.487010 0.607180
vn -0.628562 0.174019 0.758042
vn -0.628562 -0.174019 0.758042
vn -0.627816 -0.487010 0.607181
vn -0.626889 -0.702711 0.336462
vn -0.626478 -0.779439 -0.000002
vn -0.682129 -0.659529 -0.315787
vn -0.683017 -0.457003 -0.569768
vn -0.683017 -0.457003 -0.569768
vn -0.682129 -0.659529 -0.315787
vn -0.683733 -0.163273 -0.711232
vn -0.683733 -0.163273 -0.711232
vn -0.683733 0.163273 -0.711232
vn -0.683733 0.163273 -0.711232
vn -0.683018 0.457002 -0.569768
vn -0.683018 0.457002 -0.569768
vn -0.682130 0.659528 -0.315787
vn -0.682130 0.659528 -0.315787
vn -0.681736 0.731599 -0.000002
vn -0.681736 0.731599 -0.000001
vn -0.682129 0.659529 0.315786
vn -0.682129 0.659529 0.315786
vn -0.683017 0.457002 0.569769
vn -0.683017 0.457002 0.569768
vn -0.683732 0.163273 0.711233
vn -0.683732 0.163273 0.711233
vn -0.683732 -0.163273 0.711233
vn -0.683732 -0.163273 0.711233
vn -0.683017 -0.457002 0.569769
vn -0.683017 -0.457002 0.569769
vn -0.682130 -0.659529 0.315786
vn -0.682130 -0.659529 0.315786
vn -0.681736 -0.731599 -0.000002
vn -0.681736 -0.731599 -0.000002
vn -0.000000 -0.901942 -0.431857
vn -0.000000 -0.625687 -0.780074
vn 0.146083 -0.618975 -0.771706
vn 0.145735 -0.892313 -0.427246
vn -0.000000 -0.223744 -0.974648
vn 0.146364 -0.221334 -0.964152
vn 0.000000 0.223744 -0.974648
vn 0.146364 0.221334 -0.964152
vn 0.000000 0.625686 -0.780075
vn 0.146083 0.618974 -0.771706
vn 0.000000 0.901942 -0.431857
vn 0.145735 0.892313 -0.427246
vn 0.000000 1.000000 -0.000001
vn 0.145581 0.989346 -0.000001
vn 0.000000 0.901943 0.431855
vn 0.145735 0.892314 0.427244
vn 0.000000 0.625686 0.780075
vn 0.146083 0.618974 0.771707
vn 0.000000 0.223744 0.974648
vn 0.146364 0.221335 0.964152
vn 0.000000 -0.223744 0.974648
vn 0.146364 -0.221334 0.964152
vn 0.000000 -0.625685 0.780075
vn 0.146083 -0.618973 0.771707
vn 0.000000 -0.901943 0.431855
vn 0.145736 -0.892313 0.427244
vn -0.000000 -1.000000 -0.000003
vn 0.145581 -0.989346 -0.000003
vn 0.832767 -0.346395 -0.431868
vn 0.832144 -0.500180 -0.239490
vn 0.833267 -0.123701 -0.538854
vn 0.833267 0.123701 -0.538854
vn 0.832767 0.346395 -0.431868
vn 0.832144 0.500180 -0.239490
vn 0.831868 0.554974 -0.000001
vn 0.832144 0.500181 0.239489
vn 0.832767 0.346395 0.431868
vn 0.833267 0.123701 0.538854
vn 0.833267 -0.123701 0.538854
vn 0.832767 -0.346394 0.431868
vn 0.832144 -0.500180 0.239489
vn 0.831868 -0.554974 -0.000002
vn 0.942116 -0.209784 -0.261548
vn 0.941858 -0.303063 -0.145109
vn 0.942324 -0.074888 -0.326217
vn 0.942324 0.074888 -0.326217
vn 0.942116 0.209784 -0.261548
vn 0.941858 0.303063 -0.145109
vn 0.941743 0.336334 -0.000001
vn 0.941858 0.303063 0.145108
vn 0.942116 0.209784 0.261548
vn 0.942324 0.074888 0.326217
vn 0.942324 -0.074888 0.326218
vn 0.942116 -0.209784 0.261549
vn 0.941858 -0.303063 0.145108
vn 0.941743 -0.336334 -0.000001
vn 0.926632 0.339102 0.162364
vn 0.926951 0.234747 0.292671
vn 0.926951 0.234747 0.292671
vn 0.926632 0.339102 0.162364
vn 0.927206 0.083803 0.365055
vn 0.927206 0.083803 0.365055
vn 0.927206 -0.083803 0.365055
vn 0.927207 -0.083803 0.365055
vn 0.926951 -0.234747 0.292671
vn 0.926951 -0.234747 0.292671
vn 0.926632 -0.339102 0.162365
vn 0.926632 -0.339102 0.162365
vn 0.926491 -0.376318 0.000001
vn 0.926491 -0.376318 0.000001
vn 0.926632 -0.339102 -0.162364
vn 0.926632 -0.339102 -0.162364
vn 0.926951 -0.234747 -0.292670
vn 0.926951 -0.234747 -0.292670
vn 0.927206 -0.083804 -0.365055
vn 0.927207 -0.083804 -0.365055
vn 0.927207 0.083803 -0.365055
vn 0.927206 0.083803 -0.365055
vn 0.926951 0.234747 -0.292671
vn 0.926951 0.234746 -0.292671
vn 0.926632 0.339102 -0.162364
vn 0.926633 0.339102 -0.162364
vn 0.926491 0.376318 0.000001
vn 0.926491 0.376318 0.000001
s 1
g pCylinder1
usemtl initialShadingGroup
f 1/15/1 2/16/2 16/31/3 15/30/4
f 2/16/2 3/17/5 17/32/6 16/31/3
f 3/17/5 4/18/7 18/33/8 17/32/6
f 4/18/7 5/19/9 19/34/10 18/33/8
f 5/19/9 6/20/11 20/35/12 19/34/10
f 6/20/11 7/21/13 21/36/14 20/35/12
f 7/21/13 8/22/15 22/37/16 21/36/14
f 8/22/15 9/23/17 23/38/18 22/37/16
f 9/23/17 10/24/19 24/39/20 23/38/18
f 10/24/19 11/25/21 25/40/22 24/39/20
f 11/25/21 12/26/23 26/41/24 25/40/22
f 12/26/23 13/27/25 27/42/26 26/41/24
f 13/27/25 14/28/27 28/43/28 27/42/26
f 14/28/27 1/29/1 15/44/4 28/43/28
s 2
f 2/2/29 1/1/30 29/59/31
f 3/3/32 2/2/29 29/59/31
f 4/4/33 3/3/32 29/59/31
f 5/5/34 4/4/33 29/59/31
f 6/6/35 5/5/34 29/59/31
f 7/7/36 6/6/35 29/59/31
f 8/8/37 7/7/36 29/59/31
f 9/9/38 8/8/37 29/59/31
f 10/10/39 9/9/38 29/59/31
f 11/11/40 10/10/39 29/59/31
f 12/12/41 11/11/40 29/59/31
f 13/13/42 12/12/41 29/59/31
f 14/14/43 13/13/42 29/59/31
f 1/1/30 14/14/43 29/59/31
s 3
f 142/173/44 143/174/45 144/60/46
f 143/174/45 145/175/47 144/60/46
f 145/175/47 146/176/48 144/60/46
f 146/176/48 147/177/49 144/60/46
f 147/177/49 148/178/50 144/60/46
f 148/178/50 149/179/51 144/60/46
f 149/179/51 150/180/52 144/60/46
f 150/180/52 151/181/53 144/60/46
f 151/181/53 152/182/54 144/60/46
f 152/182/54 153/183/55 144/60/46
f 153/183/55 154/184/56 144/60/46
f 154/184/56 155/185/57 144/60/46
f 155/185/57 156/186/58 144/60/46
f 156/186/58 142/173/44 144/60/46
s 4
f 15/57/59 16/56/60 31/62/61 30/61/62
f 16/56/60 17/55/63 32/63/64 31/62/61
f 17/55/63 18/54/65 33/64/66 32/63/64
f 18/54/65 19/53/67 34/65/68 33/64/66
f 19/53/67 20/52/69 35/66/70 34/65/68
f 20/52/69 21/51/71 36/67/72 35/66/70
f 21/51/71 22/50/73 37/68/74 36/67/72
f 22/50/73 23/49/75 38/69/76 37/68/74
f 23/49/75 24/48/77 39/70/78 38/69/76
f 24/48/77 25/47/79 40/71/80 39/70/78
f 25/47/79 26/46/81 41/72/82 40/71/80
f 26/46/81 27/45/83 42/73/84 41/72/82
f 27/45/83 28/58/85 43/74/86 42/73/84
f 28/58/85 15/57/59 30/61/62 43/74/86
f 30/61/62 31/62/61 45/76/87 44/75/88
f 31/62/61 32/63/64 46/77/89 45/76/87
f 32/63/64 33/64/66 47/78/90 46/77/89
f 33/64/66 34/65/68 48/79/91 47/78/90
f 34/65/68 35/66/70 49/80/92 48/79/91
f 35/66/70 36/67/72 50/81/93 49/80/92
f 36/67/72 37/68/74 51/82/94 50/81/93
f 37/68/74 38/69/76 52/83/95 51/82/94
f 38/69/76 39/70/78 53/84/96 52/83/95
f 39/70/78 40/71/80 54/85/97 53/84/96
f 40/71/80 41/72/82 55/86/98 54/85/97
f 41/72/82 42/73/84 56/87/99 55/86/98
f 42/73/84 43/74/86 57/88/100 56/87/99
f 43/74/86 30/61/62 44/75/88 57/88/100
s 5
f 44/75/101 45/76/102 59/90/103 58/89/104
f 45/76/102 46/77/105 60/91/106 59/90/103
f 46/77/105 47/78/107 61/92/108 60/91/106
f 47/78/107 48/79/109 62/93/110 61/92/108
f 48/79/109 49/80/111 63/94/112 62/93/110
f 49/80/111 50/81/113 64/95/114 63/94/112
f 50/81/113 51/82/115 65/96/116 64/95/114
f 51/82/115 52/83/117 66/97/118 65/96/116
f 52/83/117 53/84/119 67/98/120 66/97/118
f 53/84/119 54/85/121 68/99/122 67/98/120
f 54/85/121 55/86/123 69/100/124 68/99/122
f 55/86/123 56/87/125 70/101/126 69/100/124
f 56/87/125 57/88/127 71/102/128 70/101/126
f 57/88/127 44/75/101 58/89/104 71/102/128
f 58/89/104 59/90/103 73/104/129 72/103/130
f 59/90/103 60/91/106 74/105/131 73/104/129
f 60/91/106 61/92/108 75/106/132 74/105/131
f 61/92/108 62/93/110 76/107/133 75/106/132
f 62/93/110 63/94/112 77/108/134 76/107/133
f 63/94/112 64/95/114 78/109/135 77/108/134
f 64/95/114 65/96/116 79/110/136 78/109/135
f 65/96/116 66/97/118 80/111/137 79/110/136
f 66/97/118 67/98/120 81/112/138 80/111/137
f 67/98/120 68/99/122 82/113/139 81/112/138
f 68/99/122 69/100/124 83/114/140 82/113/139
f 69/100/124 70/101/126 84/115/141 83/114/140
f 70/101/126 71/102/128 85/116/142 84/115/141
f 71/102/128 58/89/104 72/103/130 85/116/142
s 6
f 72/103/143 73/104/144 87/118/145 86/117/146
f 73/104/144 74/105/147 88/119/148 87/118/145
f 74/105/147 75/106/149 89/120/150 88/119/148
f 75/106/149 76/107/151 90/121/152 89/120/150
f 76/107/151 77/108/153 91/122/154 90/121/152
f 77/108/153 78/109/155 92/123/156 91/122/154
f 78/109/155 79/110/157 93/124/158 92/123/156
f 79/110/157 80/111/159 94/125/160 93/124/158
f 80/111/159 81/112/161 95/126/162 94/125/160
f 81/112/161 82/113/163 96/127/164 95/126/162
f 82/113/163 83/114/165 97/128/166 96/127/164
f 83/114/165 84/115/167 98/129/168 97/128/166
f 84/115/167 85/116/169 99/130/170 98/129/168
f 85/116/169 72/103/143 86/117/146 99/130/170
s 7
f 86/117/171 87/118/172 101/132/173 100/131/174
f 87/118/172 88/119/175 102/133/176 101/132/173
f 88/119/175 89/120/177 103/134/178 102/133/176
f 89/120/177 90/121/179 104/135/180 103/134/178
f 90/121/179 91/122/181 105/136/182 104/135/180
f 91/122/181 92/123/183 106/137/184 105/136/182
f 92/123/183 93/124/185 107/138/186 106/137/184
f 93/124/185 94/125/187 108/139/188 107/138/186
f 94/125/187 95/126/189 109/140/190 108/139/188
f 95/126/189 96/127/191 110/141/192 109/140/190
f 96/127/191 97/128/193 111/142/194 110/141/192
f 97/128/193 98/129/195 112/143/196 111/142/194
f 98/129/195 99/130/197 113/144/198 112/143/196
f 99/130/197 86/117/171 100/131/174 113/144/198
f 100/131/174 101/132/173 115/146/199 114/145/200
f 101/132/173 102/133/176 116/147/201 115/146/199
f 102/133/176 103/134/178 117/148/202 116/147/201
f 103/134/178 104/135/180 118/149/203 117/148/202
f 104/135/180 105/136/182 119/150/204 118/149/203
f 105/136/182 106/137/184 120/151/205 119/150/204
f 106/137/184 107/138/186 121/152/206 120/151/205
f 107/138/186 108/139/188 122/153/207 121/152/206
f 108/139/188 109/140/190 123/154/208 122/153/207
f 109/140/190 110/141/192 124/155/209 123/154/208
f 110/141/192 111/142/194 125/156/210 124/155/209
f 111/142/194 112/143/196 126/157/211 125/156/210
f 112/143/196 113/144/198 127/158/212 126/157/211
f 113/144/198 100/131/174 114/145/200 127/158/212
f 114/145/200 115/146/199 129/160/213 128/159/214
f 115/146/199 116/147/201 130/161/215 129/160/213
f 116/147/201 117/148/202 131/162/216 130/161/215
f 117/148/202 118/149/203 132/163/217 131/162/216
f 118/149/203 119/150/204 133/164/218 132/163/217
f 119/150/204 120/151/205 134/165/219 133/164/218
f 120/151/205 121/152/206 135/166/220 134/165/219
f 121/152/206 122/153/207 136/167/221 135/166/220
f 122/153/207 123/154/208 137/168/222 136/167/221
f 123/154/208 124/155/209 138/169/223 137/168/222
f 124/155/209 125/156/210 139/170/224 138/169/223
f 125/156/210 126/157/211 140/171/225 139/170/224
f 126/157/211 127/158/212 141/172/226 140/171/225
f 127/158/212 114/145/200 128/159/214 141/172/226
s 8
f 128/159/227 129/160/228 143/174/229 142/173/230
f 129/160/228 130/161/231 145/175/232 143/174/229
f 130/161/231 131/162/233 146/176/234 145/175/232
f 131/162/233 132/163/235 147/177/236 146/176/234
f 132/163/235 133/164/237 148/178/238 147/177/236
f 133/164/237 134/165/239 149/179/240 148/178/238
f 134/165/239 135/166/241 150/180/242 149/179/240
f 135/166/241 136/167/243 151/181/244 150/180/242
f 136/167/243 137/168/245 152/182/246 151/181/244
f 137/168/245 138/169/247 153/183/248 152/182/246
f 138/169/247 139/170/249 154/184/250 153/183/248
f 139/170/249 140/171/251 155/185/252 154/184/250
f 140/171/251 141/172/253 156/186/254 155/185/252
f 141/172/253 128/159/227 142/173/230 156/186/254
